<?xml version="1.0" encoding="utf-8"?>
<!-- Generator: Adobe Illustrator 15.1.0, SVG Export Plug-In . SVG Version: 6.00 Build 0)  -->
<!DOCTYPE svg PUBLIC "-//W3C//DTD SVG 1.1//EN" "http://www.w3.org/Graphics/SVG/1.1/DTD/svg11.dtd">
<svg version="1.1" id="Ebene_1" xmlns="http://www.w3.org/2000/svg" xmlns:xlink="http://www.w3.org/1999/xlink" x="0px" y="0px"
	 width="179px" height="150px" viewBox="0 0 85.289 73.246" enable-background="new 0 0 85.289 73.246" xml:space="preserve">
<polygon fill="#008391" points="85.289,29.633 61.896,29.049 34.091,73.246 "/>
<polygon fill="#008391" points="0.452,25.52 30.701,22.631 49.451,0.381 "/>
<polygon fill="#0098A5" points="83.089,13.784 0.444,25.484 2.646,41.333 85.288,29.633 "/>
<g>
	<defs>
		<rect id="SVGID_1_" x="-350" y="-203.143" width="841.89" height="595.28"/>
	</defs>
	<clipPath id="SVGID_2_">
		<use xlink:href="#SVGID_1_"  overflow="visible"/>
	</clipPath>
	<path clip-path="url(#SVGID_2_)" fill="#FFFFFF" d="M9.864,29.636c2.071-0.29,3.598,0.894,3.893,2.991
		c0.292,2.083-0.849,3.644-2.92,3.934c-2.059,0.29-3.586-0.895-3.878-2.978C6.665,31.486,7.806,29.926,9.864,29.636 M10.646,35.202
		c1.233-0.173,1.454-1.267,1.306-2.322c-0.148-1.054-0.664-2.057-1.897-1.885c-1.221,0.173-1.441,1.279-1.292,2.334
		C8.912,34.384,9.427,35.373,10.646,35.202"/>
	<path clip-path="url(#SVGID_2_)" fill="#FFFFFF" d="M14.468,29.171l1.714-0.241l0.129,0.915l0.038-0.006
		c0.353-0.814,1.092-1.267,1.855-1.375c1.918-0.269,2.552,0.743,2.782,2.369l0.567,4.041l-1.805,0.255l-0.52-3.711
		c-0.153-1.081-0.533-1.572-1.384-1.452c-0.978,0.138-1.32,0.743-1.133,2.077l0.484,3.443l-1.804,0.255L14.468,29.171z"/>
	
		<rect x="22.334" y="25.43" transform="matrix(-0.9903 0.1388 -0.1388 -0.9903 50.4315 56.5022)" clip-path="url(#SVGID_2_)" fill="#FFFFFF" width="1.822" height="9.161"/>
	<path clip-path="url(#SVGID_2_)" fill="#FFFFFF" d="M26.999,26.373l-1.804,0.254l-0.21-1.487l1.804-0.253L26.999,26.373z
		 M25.337,27.644l1.804-0.254l0.924,6.569l-1.805,0.254L25.337,27.644z"/>
	<path clip-path="url(#SVGID_2_)" fill="#FFFFFF" d="M28.566,27.189l1.715-0.241l0.128,0.915l0.039-0.006
		c0.352-0.814,1.091-1.268,1.854-1.375c1.919-0.269,2.552,0.743,2.781,2.369l0.569,4.041l-1.805,0.254l-0.522-3.71
		c-0.152-1.081-0.531-1.571-1.384-1.452c-0.977,0.137-1.319,0.743-1.132,2.077l0.484,3.444l-1.804,0.254L28.566,27.189z"/>
	<path clip-path="url(#SVGID_2_)" fill="#FFFFFF" d="M38.115,29.644c0.212,1.149,0.83,1.581,1.847,1.439
		c0.725-0.103,1.247-0.629,1.304-1.052l1.587-0.223c-0.288,1.634-1.276,2.434-2.763,2.643c-2.072,0.29-3.555-0.952-3.841-2.985
		c-0.277-1.97,0.872-3.66,2.868-3.94c2.235-0.315,3.593,1.412,3.737,3.452L38.115,29.644z M40.889,28.087
		c-0.294-0.891-0.756-1.319-1.633-1.195c-1.168,0.164-1.335,1.094-1.304,1.607L40.889,28.087z"/>
	<path clip-path="url(#SVGID_2_)" fill="#FFFFFF" d="M43.112,22.592l0.802-0.112l0.512,3.647l0.025-0.004
		c0.195-0.831,0.983-1.486,1.911-1.616c1.843-0.26,2.537,0.627,2.757,2.19l0.594,4.22l-0.802,0.112l-0.575-4.092
		c-0.157-1.118-0.646-1.93-1.943-1.748c-1.283,0.18-1.884,1.25-1.742,2.538l0.538,3.825l-0.802,0.113L43.112,22.592z"/>
	<path clip-path="url(#SVGID_2_)" fill="#FFFFFF" d="M51.269,27.575c0.165,1.169,0.997,2.49,2.522,2.276
		c1.169-0.164,1.709-0.926,1.822-1.967l0.802-0.113c-0.135,1.535-0.865,2.519-2.53,2.753c-2.083,0.293-3.185-1.184-3.448-3.052
		c-0.243-1.729,0.389-3.592,2.473-3.885c2.097-0.295,3.207,1.428,3.402,3.279L51.269,27.575z M55.417,26.305
		c-0.207-1.202-1.129-2.225-2.412-2.045c-1.321,0.186-1.859,1.427-1.831,2.642L55.417,26.305z"/>
	
		<rect x="57.197" y="20.601" transform="matrix(-0.9904 0.1383 -0.1383 -0.9904 118.132 42.1545)" clip-path="url(#SVGID_2_)" fill="#FFFFFF" width="0.809" height="9.161"/>
	<path clip-path="url(#SVGID_2_)" fill="#FFFFFF" d="M65.946,28.634l-0.736,0.104l-0.175-1.245l-0.026,0.003
		c-0.221,0.913-1.182,1.63-2.135,1.765c-1.995,0.28-3.173-1.187-3.435-3.054c-0.264-1.869,0.465-3.603,2.46-3.884
		c0.965-0.135,2.012,0.223,2.476,1.116l0.025-0.003l-0.529-3.762l0.801-0.111L65.946,28.634z M62.779,28.588
		c1.69-0.238,2.097-1.76,1.906-3.119c-0.191-1.36-1.002-2.71-2.692-2.473c-1.526,0.215-1.945,1.738-1.754,3.097
		C60.43,27.453,61.254,28.802,62.779,28.588"/>
	<path clip-path="url(#SVGID_2_)" fill="#FFFFFF" d="M67.515,25.292c0.164,1.169,0.998,2.49,2.522,2.276
		c1.17-0.164,1.709-0.927,1.822-1.967l0.802-0.113c-0.135,1.535-0.865,2.518-2.529,2.753c-2.084,0.292-3.186-1.185-3.449-3.053
		c-0.242-1.728,0.39-3.592,2.473-3.885c2.097-0.295,3.207,1.428,3.402,3.279L67.515,25.292z M71.663,24.021
		c-0.207-1.203-1.128-2.226-2.413-2.045c-1.32,0.185-1.858,1.427-1.83,2.642L71.663,24.021z"/>
	<path clip-path="url(#SVGID_2_)" fill="#FFFFFF" d="M73.139,20.938l0.801-0.112l0.158,1.13l0.025-0.004
		c0.194-0.83,0.983-1.485,1.912-1.616c1.842-0.258,2.537,0.629,2.757,2.192l0.592,4.219l-0.8,0.112l-0.576-4.092
		c-0.156-1.119-0.646-1.931-1.942-1.749c-1.284,0.181-1.885,1.25-1.742,2.539l0.538,3.825l-0.801,0.112L73.139,20.938z"/>
</g>
</svg>
